<svg id="Layer_1" data-name="Layer 1" xmlns="http://www.w3.org/2000/svg" viewBox="0 0 128 128">
    <defs>
        <style>.cls-1{fill:#222;fill-rule:evenodd;}</style>
    </defs>
    <title>Artboard 1</title>
    <path class="cls-1"
          d="M64,0C28.66,0,0,29.38,0,65.62c0,29,18.34,53.58,43.77,62.26,3.2.6,4.37-1.42,4.37-3.16,0-1.56-.06-5.68-.09-11.16-17.8,4-21.56-8.8-21.56-8.8-2.91-7.58-7.11-9.6-7.11-9.6-5.81-4.07.44-4,.44-4,6.42.46,9.8,6.76,9.8,6.76,5.71,10,15,7.13,18.63,5.45.58-4.24,2.23-7.13,4.06-8.77C38.11,93,23.17,87.34,23.17,62.19a25.72,25.72,0,0,1,6.59-17.61c-.66-1.66-2.85-8.33.63-17.37,0,0,5.37-1.76,17.6,6.73a59.22,59.22,0,0,1,32,0c12.22-8.49,17.58-6.73,17.58-6.73,3.49,9,1.29,15.71.64,17.37a25.68,25.68,0,0,1,6.58,17.61c0,25.21-15,30.76-29.22,32.38,2.3,2,4.34,6,4.34,12.15,0,8.77-.08,15.85-.08,18,0,1.75,1.15,3.8,4.4,3.16C109.68,119.19,128,94.61,128,65.62,128,29.38,99.34,0,64,0Z"/>
</svg>
